<svg width="1000" height="1000" viewBox="0 0 1000 1000" fill="none" xmlns="http://www.w3.org/2000/svg">
<!--    <path fill-rule="evenodd" clip-rule="evenodd" d="M1000 500C1000 776.142 776.142 1000 500 1000C223.858 1000 0 776.142 0 500C0 223.858 223.858 0 500 0C776.142 0 1000 223.858 1000 500ZM517 206.5C517 255.377 476.706 295 427 295C377.294 295 337 255.377 337 206.5C337 157.623 377.294 118 427 118C476.706 118 517 157.623 517 206.5ZM430.5 909C482.139 909 524 867.362 524 816C524 764.638 482.139 723 430.5 723C378.861 723 337 764.638 337 816C337 867.362 378.861 909 430.5 909ZM637 509C637 546.555 606.779 577 569.5 577C532.221 577 502 546.555 502 509C502 471.445 532.221 441 569.5 441C606.779 441 637 471.445 637 509ZM218 577C283.722 577 337 523.946 337 458.5C337 393.054 283.722 340 218 340C152.278 340 99 393.054 99 458.5C99 523.946 152.278 577 218 577ZM805 723C805 763.317 772.541 796 732.5 796C692.459 796 660 763.317 660 723C660 682.683 692.459 650 732.5 650C772.541 650 805 682.683 805 723ZM786.5 459C856.364 459 913 402.588 913 333C913 263.412 856.364 207 786.5 207C716.636 207 660 263.412 660 333C660 402.588 716.636 459 786.5 459Z" fill="#f2cdcd"/>-->
    <path fill-rule="evenodd" clip-rule="evenodd" d="M1000 500C1000 776.142 776.142 1000 500 1000C223.858 1000 0 776.142 0 500C0 223.858 223.858 0 500 0C776.142 0 1000 223.858 1000 500ZM517 206.5C517 255.377 476.706 295 427 295C377.294 295 337 255.377 337 206.5C337 157.623 377.294 118 427 118C476.706 118 517 157.623 517 206.5ZM430.5 909C482.139 909 524 867.362 524 816C524 764.638 482.139 723 430.5 723C378.861 723 337 764.638 337 816C337 867.362 378.861 909 430.5 909ZM637 509C637 546.555 606.779 577 569.5 577C532.221 577 502 546.555 502 509C502 471.445 532.221 441 569.5 441C606.779 441 637 471.445 637 509ZM218 577C283.722 577 337 523.946 337 458.5C337 393.054 283.722 340 218 340C152.278 340 99 393.054 99 458.5C99 523.946 152.278 577 218 577ZM805 723C805 763.317 772.541 796 732.5 796C692.459 796 660 763.317 660 723C660 682.683 692.459 650 732.5 650C772.541 650 805 682.683 805 723ZM786.5 459C856.364 459 913 402.588 913 333C913 263.412 856.364 207 786.5 207C716.636 207 660 263.412 660 333C660 402.588 716.636 459 786.5 459Z" fill="#fde399"/>
</svg>
